<mxfile host="app.diagrams.net" modified="2024-03-12T07:24:36.795Z" agent="Mozilla/5.0 (Windows NT 10.0; Win64; x64) AppleWebKit/537.36 (KHTML, like Gecko) Chrome/120.0.0.0 YaBrowser/24.1.0.0 Safari/537.36" version="24.0.4" etag="nRJU5VsyoiY_x4ttw_To" type="github">
  <diagram name="Страница — 1" id="RiZwUzDFywCK9l7nr0ti">
    <mxGraphModel>
      <root>
        <mxCell id="0" />
        <mxCell id="1" parent="0" />
      </root>
    </mxGraphModel>
  </diagram>
</mxfile>
